<?xml version="1.0" encoding="utf-8" ?><svg xmlns="http://www.w3.org/2000/svg" xmlns:xlink="http://www.w3.org/1999/xlink" width="1024" height="1024" viewBox="0 0 1024 1024"><path fill="#F9FAFB" d="M0 0L1024 0L1024 1024L0 1024L0 0Z"/><path fill="#0B0B0A" d="M211.528 412.085C226.801 411.474 243.395 412.058 258.77 412.015C277.268 411.963 299.198 409.94 315.994 418.273C329.315 424.724 339.391 436.376 343.852 450.488C351.941 475.335 342.756 504.036 319.644 517.444C312.875 521.371 305.374 523.511 297.952 525.862C304.018 527.925 309.067 529.932 314.938 532.433C320.625 546.678 332.323 567.334 342.943 578.639C346.737 582.677 351.92 585.956 356.752 588.59C348.326 588.499 339.617 588.668 331.169 588.726L310.67 588.613C305.287 570.733 289.063 543.759 279.381 526.399C270.521 525.986 252.608 526.16 243.818 526.798C243.926 536.746 243.945 546.695 243.873 556.643C243.856 569.913 242.578 577.028 249.575 588.731L211.212 588.546C218.718 574.753 216.605 559.792 216.629 544.452L216.647 489.508L216.657 445.26C216.664 437.246 216.837 428.844 216.348 420.863C216.098 416.777 214.639 414.587 211.528 412.085Z"/><path fill="#F9FAFB" d="M256.29 437.221C264.419 436.966 283.923 436.565 291.097 438.005C299.362 439.664 306.614 444.573 311.225 451.629C321.215 467.118 315.495 487.041 300.229 496.787C290.781 502.136 277.878 501.025 267.215 500.992C259.47 501.01 251.726 500.929 243.983 500.748C243.99 484.114 243.813 467.362 243.999 450.731C244.062 445.046 245.074 441.361 249.205 437.562L256.29 437.221Z"/><path fill="#0B0B0A" d="M486.373 56.7206C487.611 56.6801 488.849 56.6465 490.087 56.62C500.299 56.4114 511.166 56.6847 521.242 56.4992C550.158 55.9669 567.317 58.8626 588.522 79.7497C607.975 99.1702 624.182 125.848 625.505 153.997C626.48 174.759 610.141 195.308 588.543 195.674C576.533 195.877 569.165 188.133 561.325 180.028C544.159 162.067 526.903 144.192 509.558 126.403C501.837 118.455 492.76 107.899 484.351 101.028C465.421 85.5621 434.384 88.5345 413.554 98.5553C437.645 74.8094 450.332 58.6923 486.373 56.7206Z"/><path fill="#0B0B0A" d="M627.897 115.368C631.456 118.738 634.72 122.457 638.186 125.866C650.321 137.804 661.374 151.299 667.174 167.524C671.867 180.651 671.563 194.302 671.418 208.057C671.316 217.697 671.713 227.53 671.426 237.191C670.752 259.732 660.97 281.037 644.314 296.241C624.147 314.922 594.431 329.434 566.406 328.455C557.623 326.981 549.657 324.514 542.979 318.277C533.478 309.651 528.407 294.385 534.719 282.475C538.937 274.515 548.514 266.41 555.044 259.925C570.676 244.473 586.23 228.943 601.705 213.335C608.66 206.385 619.782 196.193 625.643 188.851C629.132 184.518 631.949 179.685 633.998 174.514C641.671 154.748 636.042 133.857 627.897 115.368Z"/><path fill="#0B0B0A" d="M433.194 234.716C444.902 235.003 449.868 238.938 457.668 247.273C460.997 250.831 464.651 254.52 468.055 258.045L509.711 301.318C518.354 310.379 526.837 320.034 536.305 328.195C556.807 345.868 584.81 343.06 607.904 332.611C597.93 344.09 583.738 357.109 570.75 364.593C548.782 375.952 533.584 373.377 510.017 373.832C481.68 374.38 462.649 374.915 439.478 355.405C413.667 333.672 380.165 278.56 407.793 247.121C414.248 239.74 423.404 235.269 433.194 234.716Z"/><path fill="#0B0B0A" d="M444.946 102.186C461.688 99.8424 481.479 108.495 488.277 124.564C491.413 132.074 491.21 140.563 487.718 147.915C484.13 155.302 472.292 165.988 466.091 172.117L421.905 216.264C415.499 222.641 403.316 233.832 398.071 240.345C394.468 244.844 391.547 249.851 389.404 255.202C382.39 273.119 385.372 292.283 393.007 309.468C394.335 312.351 396.205 315.66 397.722 318.499C393.624 313.663 388.163 308.521 383.704 303.883C368.275 287.836 356.072 271.365 352.919 248.707C351.452 238.169 352.214 228.862 351.986 218.476C351.384 191.183 350.963 169.681 368.65 146.72C386.595 123.424 415.67 106.1 444.946 102.186Z"/><path fill="#0B0B0A" d="M609.529 452.24C618.059 452.018 626.575 453.076 634.791 455.378C652.734 460.598 665.154 472.26 667.512 491.249C668.384 498.263 668.055 507.18 668.032 514.37L667.9 553.359C667.853 568.323 666.517 575.236 673.727 588.506L639.001 588.543C639.007 580.732 638.903 572.922 638.689 565.114C633.926 573.319 628.768 582.737 619.93 587.003C607.444 593.029 587.713 592.843 574.831 588.355C563.474 584.397 554.949 577.593 549.682 566.838C548.834 564.284 548.152 562.067 547.734 559.401C540.093 510.674 606.646 508.123 638.87 503.841C639.003 499.209 639.203 491.887 637.078 487.741C630.435 474.781 606.084 475.439 594.774 481.101C587.332 484.827 584.609 492.183 582.234 499.474L551.673 499.438C556.864 469.204 580.03 453.372 609.529 452.24Z"/><path fill="#F9FAFB" d="M637.425 526.729L638.273 526.718L638.848 527.506C639.463 533.288 639.673 549.781 636.951 554.322C627.229 570.543 600.107 572.538 584.845 564.479C581.249 561.739 578.591 558.308 578.037 553.754C575.533 533.171 603.002 531.122 616.41 529.337C623.402 528.365 630.408 527.495 637.425 526.729Z"/><path fill="#0B0B0A" d="M414.375 452.691C416.3 452.4 419.992 452.416 421.987 452.465C439.398 453.06 455.87 460.504 467.821 473.179C482.836 489.123 487.979 507.217 487.277 528.763C478.776 529.551 461.674 528.99 452.259 528.983L382.661 528.879C382.772 530.866 382.878 533.031 383.127 534.995C384.422 544.462 389.353 553.053 396.875 558.945C409.328 568.569 427.879 568.647 441.375 561.14C447.192 557.905 450.899 553.215 454.859 548.021L465.73 548.02L484.079 548.045C476.314 570.241 453.952 587.88 430.824 590.741C412.064 593.063 394.489 589.47 379.331 577.923C364.76 566.648 355.291 550.025 353.024 531.741C350.575 512.572 355.932 493.224 367.89 478.044C379.43 463.23 395.942 454.981 414.375 452.691Z"/><path fill="#F9FAFB" d="M415.302 478.178C434.953 474.973 452.726 487.143 455.861 507.026C443.289 507.417 427.622 506.93 414.835 506.921C400.668 506.769 391.845 504.44 381.92 516.49C385.313 495.284 391.845 481.168 415.302 478.178Z"/><path fill="#0B0B0A" d="M668.076 454.953C680.076 454.846 692.076 454.914 704.074 455.155C705.596 461.222 707.605 466.907 709.703 472.775C720.159 502.029 732.545 531.352 742.542 560.729C751.98 524.164 768.151 491.101 778.447 455.059C790.102 454.921 802.062 455.096 813.754 455.077C803.869 467.121 799.472 481.643 793.51 495.969C787.424 510.367 781.511 524.838 775.77 539.378C768.06 559.696 759.353 579.766 751.52 600.05C750.125 603.661 748.359 607.63 746.524 611.007C743.923 615.837 740.638 620.267 736.771 624.158C722.415 638.7 704.849 640.547 685.308 640.573L685.417 614.563C707.353 614.467 717.728 611.566 726.919 590.418C724.783 583.808 721.749 576.91 719.122 570.482C714.335 558.574 709.455 546.704 704.482 534.873L688.763 496.011C682.108 479.781 678.538 469.159 668.076 454.953Z"/><path fill="#0B0B0A" d="M447.156 768.305C453.164 762.321 459.149 755.615 465.89 750.493C480.176 739.637 500.664 741.441 517.542 741.478C538.338 741.523 551.372 743.818 566.5 759.12C579.076 771.84 590.215 790.079 590.141 808.52C590.109 816.505 587.698 823.846 581.82 829.489C577.11 834.011 570.949 836.806 564.346 836.543C561.437 836.427 558.699 835.714 556.159 834.281C549.999 830.803 545.023 825.17 540.06 820.216C529.155 809.329 497.155 773.588 485.743 768.538C474.194 763.427 459.68 764.623 448.141 769.191L447.156 768.305Z"/><path fill="#0B0B0A" d="M592.182 781.851C594.846 784.48 597.489 787.131 600.109 789.804C623.621 813.69 623.181 822.833 622.862 855.935C622.668 876.104 621.198 889.253 605.513 904.374C591.392 917.989 571.521 928.298 551.529 928.024C535.887 925.656 522.587 913.796 529.414 896.332C531.389 891.279 540.139 883.583 544.242 879.525L574.77 848.985C580.017 843.754 585.726 838.825 590.452 833.127C602.832 818.2 599.769 798.041 592.182 781.851Z"/><path fill="#0B0B0A" d="M454.49 864.593C468.856 863.52 473.685 872.041 482.951 881.168C493.469 891.529 503.254 902.675 513.729 913.082C521.405 920.707 529.105 929.793 539.298 933.993C553.434 939.728 565.509 936.288 578.936 930.705C575.4 933.606 571.794 937.924 568.393 941.172C564.284 945.097 560.223 948.199 555.746 951.65C551.943 954.116 547.784 955.984 543.415 957.188C532.857 960.143 498.714 960.142 487.375 958.738C462.547 955.662 440.528 925.344 434.681 902.512C430.489 886.14 435.946 868.733 454.49 864.593Z"/><path fill="#0B0B0A" d="M463.752 774.135C476.342 772.901 490.805 776.608 495.147 790.106C496.66 794.806 496.302 799.909 494.148 804.352C489.556 813.695 454.02 845.784 445.17 855.594C440.457 860.819 433.243 865.831 429.539 873.327C422.841 886.878 423.799 897.958 428.417 911.866C429.267 914.195 430.764 917.359 431.801 919.707C418.993 905.782 406.098 895.343 402.507 875.063C401.079 866.993 401.615 861.425 401.452 853.536C401.118 837.381 401.309 819.852 411.454 806.137C423.714 789.563 443.483 777.691 463.752 774.135Z"/><path fill="#0B0B0A" d="M530.316 400.401C530.701 403.25 530.514 411.849 530.5 414.993L530.474 441.867L530.507 538.188C530.496 546.367 530.465 554.556 530.429 562.734C530.386 572.259 530.171 580.975 536.503 588.793C523.782 588.673 511.033 589.058 498.362 588.857C501.377 583.7 503.64 579.125 504.029 573.038C504.711 562.366 504.432 551.128 504.438 540.413L504.456 483.348L504.414 444.63C504.398 432.118 506.28 418.551 497.938 408.401C510.777 408.517 520.691 410.583 530.316 400.401Z"/><path fill="#232323" d="M447.156 768.305L448.141 769.191L447.545 769.512C447.345 769.622 445.567 770.82 445.348 770.193C445.458 769.573 446.733 768.651 447.156 768.305Z"/></svg>