<svg xmlns="http://www.w3.org/2000/svg" viewBox="340 40 350 350" fill="none">
  <path fill="#ffffff" d="M486.373 56.7206C487.611 56.6801 488.849 56.6465 490.087 56.62C500.299 56.4114 511.166 56.6847 521.242 56.4992C550.158 55.9669 567.317 58.8626 588.522 79.7497C607.975 99.1702 624.182 125.848 625.505 153.997C626.48 174.759 610.141 195.308 588.543 195.674C576.533 195.877 569.165 188.133 561.325 180.028C544.159 162.067 526.903 144.192 509.558 126.403C501.837 118.455 492.76 107.899 484.351 101.028C465.421 85.5621 434.384 88.5345 413.554 98.5553C437.645 74.8094 450.332 58.6923 486.373 56.7206Z"/>
  <path fill="#ffffff" d="M627.897 115.368C631.456 118.738 634.72 122.457 638.186 125.866C650.321 137.804 661.374 151.299 667.174 167.524C671.867 180.651 671.563 194.302 671.418 208.057C671.316 217.697 671.713 227.53 671.426 237.191C670.752 259.732 660.97 281.037 644.314 296.241C624.147 314.922 594.431 329.434 566.406 328.455C557.623 326.981 549.657 324.514 542.979 318.277C533.478 309.651 528.407 294.385 534.719 282.475C538.937 274.515 548.514 266.41 555.044 259.925C570.676 244.473 586.23 228.943 601.705 213.335C608.66 206.385 619.782 196.193 625.643 188.851C629.132 184.518 631.949 179.685 633.998 174.514C641.671 154.748 636.042 133.857 627.897 115.368Z"/>
  <path fill="#ffffff" d="M433.194 234.716C444.902 235.003 449.868 238.938 457.668 247.273C460.997 250.831 464.651 254.52 468.055 258.045L509.711 301.318C518.354 310.379 526.837 320.034 536.305 328.195C556.807 345.868 584.81 343.06 607.904 332.611C597.93 344.09 583.738 357.109 570.75 364.593C548.782 375.952 533.584 373.377 510.017 373.832C481.68 374.38 462.649 374.915 439.478 355.405C413.667 333.672 380.165 278.56 407.793 247.121C414.248 239.74 423.404 235.269 433.194 234.716Z"/>
  <path fill="#ffffff" d="M444.946 102.186C461.688 99.8424 481.479 108.495 488.277 124.564C491.413 132.074 491.21 140.563 487.718 147.915C484.13 155.302 472.292 165.988 466.091 172.117L421.905 216.264C415.499 222.641 403.316 233.832 398.071 240.345C394.468 244.844 391.547 249.851 389.404 255.202C382.39 273.119 385.372 292.283 393.007 309.468C394.335 312.351 396.205 315.66 397.722 318.499C393.624 313.663 388.163 308.521 383.704 303.883C368.275 287.836 356.072 271.365 352.919 248.707C351.452 238.169 352.214 228.862 351.986 218.476C351.384 191.183 350.963 169.681 368.65 146.72C386.595 123.424 415.67 106.1 444.946 102.186Z"/>
</svg>